<?xml version="1.0" encoding="utf-8"?>
<!-- Generator: Adobe Illustrator 26.5.0, SVG Export Plug-In . SVG Version: 6.00 Build 0)  -->
<svg width="161" height="166" viewBox="0 0 161 166" fill="none" version="1.1" id="Layer_1" xmlns="http://www.w3.org/2000/svg" xmlns:xlink="http://www.w3.org/1999/xlink" x="0px" y="0px"
	 viewBox="0 0 1000 1000" style="enable-background:new 0 0 1000 1000;" xml:space="preserve">
<style type="text/css">
	.st0{fill:#FEFEFE;}
	.st1{fill:#FED428;}
	.st2{fill:#FE2C10;}
	.st3{fill:#FDFDFD;}
	.st4{fill:#FCFCFC;}
</style>
<g>
	<path d="M747.58,440.96c-7.05-16.14,2.19-6.17,9.9-10.08c-26.63-44.13-12.88-17.38,7.34-35.49c-10.48-10.2-20.83-22.27-26.94-35.4
		c6.08-3.39,16.33-4.07,21.11-9.71c-10.63-5.81-24.09-10.79-32.02-21.59c2.59-5.31,13.32-3.75,18.02-7.31
		c-8.71-7.54-25.5-12.52-30.92-22.33c6.15-5.11,11.9-9.28,16.64-15.93c10.58-7.1-30.02-4.38-35.99-12.63
		c-2.93-5.66,11.52-11.17,11.57-17.9c-16.18,1.81-34.99,1.04-49.79-7.9c1.94-4.85,10.84-7.36,13.2-12.77
		c-1.76-4.48-26.91,4.14-30.61-3.54c2.54-5.39,4.32-10.27,4.95-16.18c5.73-11.72-18.75-0.65-25.31-1.77
		c-12.4-1.01-41.35,2.85-27.94-15.59c14.71-19.13-5.25-2.46-12.54-0.05c-2.14-5.54,8.8-17.94,2.11-21.01
		c-11.63,10.81-26.45,15.43-41.12,19.16c-4.45-0.19,2.66-8.11,1.78-10.54c4.93-14.66,4.14-17.93-6.35-4.66
		c-8.89,7.03-18.76,12.8-29.41,16.24c-11.18,2.26-20.09-13.94-31.18-16.57c-4.09-2.86-9.78-7.31-14.42-7.98
		c0.58,4.88,19.04,22.87,11.65,23.63c-9.42-2.83-19.39-4.74-27.74-8.96c-3.27,0.89,9.15,8.44,8.69,12.92
		c-16.48,3.31-38.3,4.26-52.58-5.8c-1.1-0.55-4.43-5.79-4.65-2.43c8.11,35.15,0.75,14.36-36.86,19.02
		c-6.34,1.3,20.22,13.85,11.46,18.61c-17.29,3.85-36.82,6.7-54.28,6.31c0.1,6.02,9.77,9.91,11.23,15.9
		c-3.38,2.11-25.23-2.33-19.9,4.7c29.92,16.74,4.22,15.46-13.82,23.31c-44.52,13.02,36.1-1.09-12.56,39.57
		c-1.44,5.37-31.83,11.82-23.56,14.33c21.95,5.89,12.74,3.39-0.95,16.21c3.73,3.47,19.09-9.01,14.01,3.24
		c-8.62,33.91-54.17,38.49-13.38,44.56c-7.76,2.4-17.97,6.92-22.81,13.17c5.71,3.64,29.94,1.65,22.53,13.82
		c-32.82,41.65-27.42,16.16,5.77,38.41c-39.88,52.76-2.02,15.14,1.34,25.65c-6.26,36.6-36.5,38.11,4.65,38.23
		c-3.16,12.89-10.24,25.68-11.36,40.09c3.94,3.16,10.79-5.47,16-5.12c-3.92,23.17-12.37,53.39-0.06,79.46
		c14.75,28.47,38.51,53.26,67.13,67.48c26.9,37.22,59.09,71.16,94.57,101.68c30,31.66,90.21,25.23,129.19,13.95
		c36.61-25.18,68.01-59.64,92.68-96.22c5.38-9.69,8.23-21.86,20.43-24.81c16.22-3.73-3.01,55.61,4.79,64.35
		c11.33,0.83,14.72,1.74,15.99-8.69c18.46-0.36,10.04-4.58,13.07-14.27c17.97,5.83-1.37-48.82,1.74-61.49
		c7.95-5.32,1.66-13.22,3.77-20.05c4.2-6.64,9.71-13.41,12.12-20.88c9.9-19.25,13.56-63.86-4.07-78.86
		c-6.74-14.15,22.49,11.71,12.26-6.67c-22.06-46.12,29.15-2.7,0.31-41.43c34.08-0.75,17.02-4.07,10.16-24.67
		C788.41,480.66,751.61,472.22,747.58,440.96z M257.47,409.04c-2.14,3.23-7.33-3.18-6.61-6.46c-0.89-5.5,6.29-3.25,8.71-5.9
		c4.16-3.78-0.43-8.01-4.81-7.62c-4.99,1.24-1.4-6.5,0.4-7.73c0.19-6.65,6.87-2.43,10.14-0.77c23.29-1.79,9.47,3.85,1.3,14.67
		c0.91,4.54-5.93,4.21-5.72,8.47C259.66,405.49,257.94,406.89,257.47,409.04z M248.06,441.6c2.73-8.63,12.1-14.33,12.8-23.56
		c0.78-5.14,3.72-1.05,7.1-1.84c3.72,2.5,2.42-0.71,6.73,0.06c1.93,2.5-2.31,4.48-3.76,6.06c-3.3,6.67-9.34,12.82-15.21,16.82
		C252.36,442.17,249.69,451.87,248.06,441.6z M295.06,657.89c-6.29-5.18-11.19-13.69-15.66-20.69c-5.77-9.03-8.04-20.21-7.06-33.38
		c0.51-3.29-1.37-20.64,1.4-16.04c2.32,10.38,3.53,21.4,4.3,32.85c1.73,2.84,7.72-0.88,5.65,5.68c-0.19,2.9-0.11,4.72,1.43,6.57
		c0.44,1.5-1.08,4.42,1.09,4.75c4.93,12.16,15.54,22.67,25.92,29.86c4.29,1.74,7.79,6.5,12.61,7.18c0.8,1.61,2.82,1.41,4.34,2.83
		c0.05,2.02,2.2,3.64,1.82,5.94C339.83,705.83,296.07,664.83,295.06,657.89z M296.8,595.94c-5.79-5.45-8.85-16.85-17.44-18.27
		c-1.75-1.04-3.48,2.25-4.21,0.7c0.42-3.25,0.77-7.8,4.11-9.34c7.99,1.11,12.42,13.24,15.91,18.1
		C294.79,588.99,301.02,595.28,296.8,595.94z M300.84,622.57c3.85,2.53-0.86,10.61,2.44,13.63c1.59,0.89-0.99,3.87,1.59,4.31
		c1.32,7.76,9.81,11.58,15.87,16.04c2.42,2.2,4.26,4.59,4.43,7.91c-0.87,1.51,2.73,1.95,0.83,3.01c-9.48-0.18-40.6-31.3-32.62-39.96
		c12.34,1.81,4.04-10.19-2.42-8.05c-0.5,2.56-3.94-0.69-4.59,2.16c-2.17,0.79-0.95-3.05-1.25-4.26c-0.66-2.19,0.82-6.45,2.9-3.19
		c1.01,1.66,3.87-1.06,4.49,1.77C297.34,615.25,305.24,617.49,300.84,622.57z M302.24,561.86c0.28,1.12-0.24,4.28-1.4,2.18
		C300.05,561.07,302.23,556.05,302.24,561.86z M308.02,586.62c0.21,2.51-0.09,5.4-1.94,2.4c-4.22-0.02-4.21-3.41-2.33-5.73
		c0.74-2.29,3.17-7.47,2.85-1.13C308,583.79,308.14,584.92,308.02,586.62z M312.48,630.1c2.84,0.61-0.36,4.18,2.22,4.56
		c1.89,5.49,7.76,17.85-2.56,6.25c-2.55-2.28-0.85-4.99-1.31-7.74c0.48-2.1-1.06-5.91,0.69-7.06
		C313.29,626.33,311.74,629.04,312.48,630.1z M282.33,593.85c-1.39-13.55,10.42,9.83,13.36,12.23c2.26,3.3-8.83,1.06-9.91-1.45
		C282.95,601.9,282.4,597.94,282.33,593.85z M411.22,778.64c-26.77-26.62-54.56-53.76-69.09-85.22c-3.4-0.97,0.76-5.16-2.43-6.11
		c-0.06-3.09-1.47-5.72-1.67-8.49c-2.61-2.58-0.15-5.47-2.55-7.07c-1.48-1.24,1.12-5.27-1.39-5.76c-0.82-2.3,0.19-5.06-1.77-6.75
		c0.77-3.71-2.04-4.91-1.51-8.52c-1.93-3.09-0.49-6.62-2.32-7.6c-1.8-1.03,1.08-5.22-1.58-5.65c-1.45-1.24,1.12-5.3-1.39-5.76
		c-1.56-1.7,1.44-6.44-1.55-7.2c-0.6-1.44,0.11-3.85-0.38-5.31c-3.38-1.01,0.62-5.1-2.47-6.2c0.24-4.77-1.96-7.55-1.73-12.28
		c-0.02-0.77,0.37-1.79-1.05-1.85c-1.42-1.16,1.01-5.09-1.28-5.7c-2.14-16.93-8.11-31.64-7.64-50.2c2.66-3.28,0.13-3.51,2.9-6.34
		c0.87-4.09,4.64-8.41,6.48-11.97c1.53-3.24,3.69-7.44,6.01-10.07c1.15-0.63-0.71-2.84,1.56-2.89c0.54-0.81-0.54-2.62,1.26-2.79
		c1.47-35.34-8.14-80.52-2.81-119.89c-0.23-10.57,2.02-12.16,11.34-14.23c2.23-1.21,4.58-1.29,7.39-1.69
		c0.13-1.61,1.29-1.04,2.14-1.13c2.15,0.5,2.49-2.15,4.93-1.48c5.65-1.13,1.11,4.21-1.68,4.3c-3.09,2.12-3.87,6.37-6.33,8.69
		c-1.15,0.81,0.96,3.82-1.33,4.26c0.02,3.45,1.87,8.15,1.07,12.73c2.14,4.83,1.28,11.43,2.79,16.89c6.81,9.26,3.81,23.07,4.33,35.55
		c-0.21,1.87-2.4,3.41-1.45,6.09c-1.02,4.93-6.89,8.81-7.22,13.96c-2.42,0.72-1.05,2.7-1.35,4.11c-0.85,2.1-1.66,4.64-1.59,7.34
		c-3.36,1.09,0.69,5.19-2.44,6.15c-1.32,2.1,1.1,6.9-1.06,8.43c-2.11,1.54,1.28,6.13-1.75,7.28c-1.17,0.76,1,4.04-1.4,4.22
		c-1.28,1.07,0.9,3.61-1.54,4.44c-0.48,1.68,0.19,3.72-1.68,4.81c-0.08,0.92,0.4,1.99-1.2,2.31c-1.06,0.89,1,3.85-1.34,4.28
		c-1.14,0.86,1.01,3.84-1.36,4.21c-1.3,0.88,1.04,4.04-1.52,4.33c-1.21,1.25,0.93,4.79-1.14,5.51c-1.82,1.16,1.07,5.27-1.64,5.84
		c-1.38,2.28,2.28,4,1.11,6.92c2.28,3.31,0.18,5.07,2.65,6.05c0.71,2.45,1.42,5.52,4.17,6.98c0.18,1.99,0.67,2.39,1.74,3.79
		c0.06,0.83-0.33,1.88,1.12,1.99c0.79,0.77-0.59,2.86,1.49,2.78c1.55,5.3,4.41,9.47,5.96,14.22c5.11,14.66,1.86,34.01,7.07,48.37
		c-0.27,5.4,1.06,10.01,2.86,14.26c-0.08,2.97-0.4,5.02,1.49,6.89c0.42,1.44-1.02,4.49,0.99,4.82c1.07,0.7,0.17,2.96,0.45,4.19
		c0.53,1.8,1.95,2.6,1.39,5.27c-0.75,1.95,1.93,1.59,1.41,3.66c-0.12,2.54,2.33,3.8,1.49,7.01c0.86,1.72,1.84,2.8,1.37,5.37
		c-0.51,1.73,2.05,1.32,1.48,3.18c0.26,0.98-0.77,2.49,1.21,2.76c1.03,1.32-1.01,5.13,1.09,5.64c1.69,0.88-1.03,3.88,1.77,4.55
		c0.68,0.82-0.91,4.04,1.3,4.08c0.11,2.46,1.72,4.37,1.71,7.12c-0.51,1.48,1.42,1.06,1.48,2.09c-0.55,1.7,0.92,1.79,1.43,3
		c0.15,0.83-0.52,2.04,1.14,2.14c0.8,0.97-0.64,2.69,1.52,2.87c1.02,7.03,8.31,9.76,10.3,16.31
		C390.54,754.33,462.21,827.6,411.22,778.64z M434.98,797.73c5.09,7.3,15.65,11.04,21.48,16.81
		C457.64,820.24,426.85,797.9,434.98,797.73z M671.77,661.95c-0.34,2.84-0.87,5.69-2.19,7c-1.54,1.49,1.12,6.21-1.17,7.13
		c-1.97,0.93,1.14,5.39-1.65,5.77c-3.43,28.58-18.57,52.29-39,75.16c-9.6,9.12-17,22.64-29.35,30.47
		c-10.53,10.89-21.47,22.12-33.55,29.99c-27.82,9.05-77.13,8.4-105.44-0.05c-3.04,0.68-0.51-2.86,1.35-1.45
		c3.31,0.93,4.01-3.57,1.56-4.3c-5.3-2.68-9.65-7.31-15.18-9.99c-11.39-10.46-24.48-21.77-35.08-34.08
		c-1.32,0.12-1.34-1.87-2.59-1.95c0.28-4.76-7.6-5.8-7.32-10.76c-2.21-1.64-5.46-4.51-6.22-7.42c-7.67-6.54-15.07-18.71-18.13-28.16
		c-6.92-21.38-12.76-43.01-18.21-64.8c-2.39-9.57-3.74-19.19-4.65-29.02c-0.5-5.34-0.88-10.69-1.3-16.04
		c-0.35-4.39,0.46-11.96-1.42-15.92c-2.46-5.18-3.85-11.65-8.1-17.44c-1.24-0.87,0.6-2.79-1.56-2.96c-0.94-0.62,0.72-2.89-1.36-2.84
		c-1.01-0.65,0.6-2.8-1.46-2.89c-0.89-1.18,0.19-2.52-1.7-3.31c-10.91-18.43-6.76-12.23-4.25-31.92c3.01-1.28,6.67-21.34,8.05-25.37
		c3.13-9.14,5.97-18.37,8.51-27.69c1.17-4.27,1.96-8.75,3.26-12.96c0.79-2.54,2.67-5.42,2.92-8.09c0.39-4.12,2.36-7.13,1.46-11.94
		c2.17-3.62,2.25-10.55,0.01-14.07c-1.65-11.77-1.2-24.69-3.8-35.92c-1.45-8.47-4.54-15.86,5.02-21.49
		c0.59-0.34,1.18-3.88,1.65-4.67c1.77-3.01,6.34-4.04,9.43-5.21c4.35-1.65,8.78-3.08,13.28-4.28c4.19-1.12,8.44-2.03,12.68-2.94
		c10.19-2.19,21.32-6.12,31.73-6.54c0.87-0.04,2.62-0.21,3.07,0.79c0.63,1.41-1.88,3.61-2.67,4.4c-0.33,3.83-7.9,10.48-3.59,14.29
		c7.09,0.58,8.9,8.05,13.12-3.57c-1.36-3.88,7.15-14.2,8.52-7.27c-2.21,1.96-1.16,4.35-1.37,6.98c-2.73,3.67-1.8,10.18,0,13.94
		c-0.14,2.05,4.83,1.51,4.29,4.44c-0.28,10.34,9.45-0.25,10.22-4.35c7.36-6.63,14.45-14.62,22.07-21.63
		c7.32-17.03-18.31,8.35-20.99,12.51c-5.39,1.95,10.76-18.08,13.53-16.8c7.31-8.45,18.91-6.51,26.03,1.58
		c2.81,3.76,5.86-0.41,8.19-0.1c6.23,1.24,9.55-3.77,13.6-7.62c6.62-4.66,10.38,4.7,14.4,8.55c5.1,1.54,7.14,6.71,10.12,10.24
		c6.85,8.52,9.63,3.31,15.75,8.33c2.74,2.14,5.72,8.09,9.99,5.18c3.72-2.88-1.15-9.4-1.62-12.05c0.69-2.25-1.9-2.68-1.36-5.15
		c0.38-1.54-0.61-1.39-1.45-2.36c-0.14-1.02,0.24-2.03-1.29-2.67c-1.66-9.47,9.39,2.36,12.43,4.9c0.59,1.83-0.09,4.61,2.54,5.39
		c3.02,4.51,16.77,0.05,10.9-5.63c-4.6-6.88,3.05-7.07,6.94-4.64c1.63,1.61,6.29-1.4,7.18,1.43c5.03,0.04,9.47,1.77,14.32,1.79
		c3.22,2.66,6.61,0.45,9.8,2.84c3.28-0.09,6.14-0.37,8.37,1.42c1.82,0.69,5.48-1.53,6.04,1.17c1.68,1.41,6.33-1.43,7.07,1.3
		c1.62,1.19,5.34-0.48,7,0.66c0.06,1.65,1.24,1.11,2.09,1.16c2.77-0.32,4.47,0.14,6.29,1.49c8.67-0.79,9.63,4.43,8.86,12.18
		c-1.41,41.27-5.54,87.08-5.79,125.9c0.51,3.16,1.26,6.77,3.64,8.92c0.62,3.26,5.02,4.27,5.07,7.92c4.94,4.93,8.19,10.8,11.13,16.71
		c3.29,6.61-1.62,20.3-2.83,27.14c-1.69,9.57-3.03,19.15-4.68,28.76c-2.17,12.63-4.44,25.24-6.82,37.83
		c-1.19,6.3-2.41,12.59-3.66,18.87C672.17,657.7,672.02,659.83,671.77,661.95z M531.9,293.24c-2.72,0.98-22.83,23.79-21.21,15.22
		C509.62,304.34,530.34,287.63,531.9,293.24z M514.63,284.7c0.46-3.08,3.59-12.2,3.29-2.66c-1.01,3.24,2.72,5.3,0.97,8.43
		c-1.65,0.96-6.85,5.26-6.64,1.37c0.17-1.02-0.89-2.52,1.19-2.94C514.4,288.14,512.5,285.11,514.63,284.7z M517.79,340.55
		c1.99-0.75,2.17,3.17,0.12,2.8C515.95,343.86,515.75,339.96,517.79,340.55z M700.68,542.55c-0.55,3.28,1.12,8.29-0.68,10.68
		c-1.69-0.18-0.97-13.05-3.26-12.93c-2.34-6.04-6.62-11.14-10.07-15.79c-1.65-4.83,1.69-0.59,3.72-1.29
		c2.53,0.3,4.13,3.57,6.02,5.35C701.95,529.7,700.48,537.41,700.68,542.55z M699.19,581.64c-0.45,1.87-2.02,3.08-1.37,5.71
		c0.63,1.79-2.23,1.42-1.45,3.32c0.27,1.58-3.06,1.68-2.84,0.05c-1.74-7.06,4.98-7.79,4.3-13.54c-4.86-2.99,1.97-25.91,2.86-12.39
		C699.83,570.3,698.58,575.25,699.19,581.64z M675.66,694.57c-7.53,1.41-1.42-11.39,2.48-11.34
		C683.29,685.66,683.62,695.6,675.66,694.57z M676.84,673.31c1.79-1.51,0.43-3.82,2.36-5.65c0.45-3.19,4.24-5.45,5.91-8.47
		c3.15-0.58,6.01-2.51,8.53-5.33c0.77-2.55,4.95-1.74,5.51-4.54c4.15-6.47,8.47-11.3,7.21-20.04c-0.28-4.13,6.46,0.29,7.16-2.75
		c1.97-1.93,1.36,2.6,1.43,3.77C720.02,635.36,673.02,688.23,676.84,673.31z M719.23,598.81c-0.27,4.37-3.71,12.36-9.28,11.55
		c-3.72,0.24-3.62-0.18-2.19-2.82c1.06-1.99,2.33-5.39,3.81-7.24c0.89-2.83,2.63-5.61,4.92-8.26c2.39,0.13,3.46-2.53,4.04-1.25
		c1.98,1.69,1.65,3.71,1.47,6.06C721.88,598.64,718.71,596.35,719.23,598.81z M713.42,620.43c-2.21,0.78-4.39-2.19-1.81-2.97
		c1.27-0.26,2.94,0.82,3.73-1.23C717.48,616.44,716.59,621.89,713.42,620.43z M706.98,620.43c-2.05,0.67-2.99-1.86-0.49-1.47
		C709.26,618.19,710.39,620.91,706.98,620.43z M699.43,666.22c2.42,0.01,0.25-2.61,1.95-2.96c1.06-0.03,4.16,1.24,3.39,2.59
		c-2.47,0.01-0.15,3.55-2.55,2.98C700.92,668.9,698.93,666.97,699.43,666.22z M698.03,688.97c-4.76-0.63,0.95-4.27,2.73-4.39
		C701.21,672.78,703.75,690.72,698.03,688.97z M706.18,687.16c0,4.93-2.56,15.48-2.71,4.99
		C702.95,690.23,703.88,683.29,706.18,687.16z M694.9,678.11c-1.64,1.5-0.9,4.5-4.27,3.66c-5.94,0.58-1.84-7.54,0.82-8.56
		C693.81,674.6,693.15,676.8,694.9,678.11z M684.97,748.94c0.29-8.56,1.27-16.86,3.5-24.27c1.95,9.99,1.78,22.04,3.62,32.22
		C685.57,760.05,684.03,754.96,684.97,748.94z M697.58,699.7c-2.46,10.49,1.71,37.41-3.93,39.79c1.17-14.63-5.76-30-2.04-44.12
		C693.05,686.68,700.48,694.03,697.58,699.7z M699.19,737.44c0.32-11.16,0.91-22.33,2.28-32.79c2.57,3.45-1.68,11.59,1.76,14.4
		c0.01,9.18,1.61,17.04,3.18,25.26C699.5,760.01,698.23,747.04,699.19,737.44z M708.59,677.4c-2.55-0.27,0.63-5.09,0.66-1.42
		C709.1,676.46,709.61,677.3,708.59,677.4z M709.25,662.87c0.24-2.41,2.02-0.25,1.42,1.22C710.81,667.91,708.5,665.23,709.25,662.87
		z M713.47,732.13c-2.83,4.75-3.08,0.52-2.8-3.29c-0.01-3.8-4.04-26.66-0.01-24.51C710.89,714.15,713.26,722.36,713.47,732.13z
		 M728.13,624.8c-1.29,0.92,1.07,3.91-1.47,4.37c-0.61,0.11-0.18,1.34-0.27,2.05c-0.11,0.85,0.46,2.04-1.15,2.12
		c-0.94,0.74,0.48,2.68-1.47,2.96c-0.16,1.65-0.62,2.31-1.72,3.44c0.68,1.86-1.34,1.74-1.43,3.18c-0.44,4.16-5.32,6.98-5.8,11.43
		c-3.28,4.98-8.31,3.28-4.3-1.35c0.36-3.61,2.7-6.27,5.61-8.79c2.89-2.89,3.75-7.64,5.92-10.84c1.96-3.98,0.45-10.51,2.38-14.48
		c0.93-2.93,0.15-6.13,1.95-8.62c-1.76-16.77,4.11-24.6,4.24-2.85C730.56,613.7,730.42,619.92,728.13,624.8z M727.82,579.45
		c2.05,1.02,2.21,13.24,0,9.84c0.75-2.9-1.01-4.14-1.4-6.3c-4.06-13.22-13.28-0.25-15.83,5.39c-3.55,4.43-3.59,8.87-6.84,12.05
		c-0.9,0.8,0.74,2.94-1.47,3c0.08,1.76-0.56,2.31-1.59,3.4c-0.07,0.94,0.36,2-1.25,2.3c-1.04,0.68,0.89,3.94-1.25,4.19
		c-1.37,1.22,0.92,4.93-1.23,5.65c-0.97,0.1-0.99,2.63-0.09,2.76c2.31,1.77,0.33,6.63,0.95,9.49c1.56,9.19-4.55,16.85-12.02,20.52
		c-2.79-2.2,1.7-5.64,0.51-8.47c-0.3-1.63,1.91-1.31,1.46-3c0.26-1.03-0.76-2.62,1.27-2.92c0.97-1.54-1.03-5.01,1.16-5.63
		c0.87-2.33,0.02-5.1,1.92-6.92c0.28-1.13-0.84-2.66,1.23-3.34c1.17-1.18-1.35-4.96,1.38-5.59c-0.1-3.93,0.94-2.97,1.61-5.79
		c-0.75-2.31,1.89-2.34,1.49-4.71c0.12-0.85-0.44-1.87,1.05-2.29c1.26-0.77-0.97-4.06,1.42-4.24c1.1-0.65-0.61-2.87,1.57-2.92
		c0.79-0.73-0.62-2.55,1.25-2.84c1.39-0.87-1.13-4.06,1.52-4.25C707.83,577.59,725.87,549.43,727.82,579.45z M717.82,559.28
		c-5.47,6.17-11.27-10.23-2.06-8.86C722.75,549.42,716.25,555.16,717.82,559.28z M754.94,477.2c-1.11,3.8-5.6,6.53-9.27,6.13
		c-8.05,3.67,1.93,15.03-3.46,19.98c-2.74-2.84-22.5-19.75-21.5-6.13c1.66,0.92,2.47,2.67,4.1,3.7c-0.61,4.08,5.7,4.61,5.81,8.38
		c-0.05,1.47,2.17,1.47,1.48,3.2c-0.81,1.67,1.37,2.04,1.36,3.32c0.38,11.43-10.9-1.12-15.24-4c-0.49-4.38-3.18-8.42-7.39-11.48
		c-1.98-9.2-12.63-2.49-4.02,4.27c2.97,1.84,2.8,5.98,5.04,7.44c0.76,2.3-1.01,5.78,2,6.75c3.89,6.2,14.37,6.51,12.51,15.14
		c-1.6,2.83-4.56-5.45-7.5-3.45c-6.79,8.48,12.4,9.83,4.14,17.06c-2.95-7.64-12.23-15.01-16.65-23.35
		c-1.07-3.47-4.48-0.56-5.86-3.51c-2.58-0.73-6.28-2.12-8.43-3.96c-8.51-3.99-5.78,6.96-12.26-0.54c-1.65-18.8,0.08-39.21,1.9-57.25
		c-0.57-27.87,5.74-57.68,1.88-84.03c-0.92-7.52-9.29-9.32-14.39-10.87c-0.96-1.87-5.07,0.97-5.71-1.54
		c-0.07-0.72-0.8-0.49-1.27-0.5c-3.39,0.15-6.2,0.24-8.55-1.49c-5.32,0.37-9.42-1.56-14.3-1.69c-0.91-3.18-6.33,0.87-7.32-2.11
		c-7.07-1.44-13.55-6.31-21.25-9.3c-2.44-3.02-8.4-2.7-10.09-6.62c-0.55-2.33,4.74-9.43-1.47-8.76c-1.72-0.39-4.24,1.04-5.76,2.28
		c-0.88,1.64-3.89-0.98-4.38,1.72c-0.58,0.8-2.61-0.5-2.72,1.21c-0.86,1.74-3.92-1.01-4.35,1.69c-11.4,3.51-1.3,8.58-3.46,12.96
		c-4.82-0.58-9.92-6.43-14.5-7.19c-3.03-1.52-6.9-5.34-9.01-3.53c-3.54,2.74-0.7,6.7,1.42,9.3c-0.46,1.66,1.83,1.24,1.38,3.04
		c-0.56,1.96,0.7,2.27,1.41,3.87c-0.54,1.87,1.99,1.53,1.5,3.55c-1.16,1.71,2.26,2.75,0.96,3.79c-5.78-0.36-7.96-8.8-11.08-12.4
		c-7.64-7.39-13.57-16.01-22.26-21.74c-6.52,1.58-5.37-5.36-9.06-7.88c1.79-1.53,2.76-2.78,3.52-5.08
		c5.48-4.98,8.12-11.24,13.5-15.93c2.43-1.99,7.46-9.91,10.13-8.97c0.85,3.69-2.03,5.58-1.44,8.78c0.45,2.42-0.96,2.97-1.4,4.85
		c-0.77,4.68,2.11,5.34,5.74,3.41c2.28-1.47,0.98-3.57,1.34-5.35c1.75-1.68,1.54-2.74,1.46-4.9c0.2-0.73-0.34-1.76,1.05-1.89
		c1.31-1.28-0.99-5.06,1.31-5.73c1.69-0.83-0.99-3.93,1.73-4.35c-0.7-3.06,2.45-6.25,0.59-8.57c-1.49-0.95-2.49-4.11-4.64-2.07
		c-5.14,2.8-9.78,9.73-16.38,9.31c-8.03-3.32-0.14-2.41,0.6-5.83c-0.31-6.71-7.06,0.34-10.08,0.19c-3.31,0.02-0.18-2.87,0.12-3.96
		c2.8-8.93-4.98-22.5-10.13-9.22c-6.46,6.31-13.42,16.23-15.57,25.04c-3.66,3.76-7.16,49.96,4.41,32.97
		c1.2-2.61,9.14-7.85,6.46-2.07c-2.81,2.04,1.16,8.18-2.76,9.94c-3.32,2.36-3.15,8.27-8.93,7.28c-1.67-0.44,0.47-2.83-1.63-2.86
		c-1.31-0.57,0.71-3.03-1.64-3.03c-1.91-5.93-6.74-10.14-10.3-15.19c-1.64-2.25-14.44,3.83-10.25-0.47
		c3.08-6.32-7.51-10.2-4.85-15.5c3.62,2.37,6.26,7.25,10.63,6.92c6.33-9.99-18.16-18.14-19.74-28.09
		c-4.79-2.17-13.1-25.47-15.61-9.35c4.07,3.38-1.26,10.66,2.49,13.49c0.12,6.02,1.71,10.95,1.71,17.04
		c-2.4,2.56-9.97,2.49-3.32,8.71c3.98,2.9,4.16,9.82,10.87,8.38c0.72-0.7,4.33-5.36,1.41-5.85c-1.47-3.12,0.04-19.03,1.27-8.65
		c3.82,1.51-1.26,8.72,2.37,10.31c0.56,5.25,2.24,12.04,7.98,14.13c1.45,2.55,3.94,0.11,5.33,2.57c0.92,1.18,3.84-1.04,4.23,1.41
		c0.08,0.52,1.4,0.35,2.07,0.2c1.76-0.15,7.91,5.13,5.46,5.8c-3.2-0.74-4.27,1.12-6.99,1.44c-6.97,1.65-13.73,8.21-19.3,13.62
		c-5.72,4.34-9.23,15.99-8.45,1.32c2.73-2.56,0.28-5.01,2.79-7.6c-0.81-3.76,4.95-6.22,2.02-10.36c-6.24-5.43-7.31,8.38-13.37,3.82
		c2.36-2.5,4.45-8.68-1.5-7.98c-2.98,0.35-4.19,6.05-7.09,7.18c-7.98,3.11-16.47,0.05-24.68,0.72c-18.4,1.52-35.58,8.82-52.48,15.72
		c-8.52,3.47-17.07,6.91-25.88,9.56c-6.97,2.09-15.8,3.91-16.87,12.67c-4.17,33.99-0.84,73.44,1.36,106.73
		c2.88,3.08-0.23,10.03,2.37,13.19c2.25,2.1-0.89,5.58-0.91,7.19c-1.1,4.3-4.53,8.51-7.11,12.04c-0.39,2.14-1.91,5.88-4.43,6.64
		c0.18,0.1,0.22,1.1-0.09,1.02c-3,0.31,0.58,4.19-2.41,4.5c0.02,2.34-1.96,2.9-1.66,5.6c-0.48,1.77-2.1,2.71-1.49,5.26
		c-0.7,2.41-2.04,4.39-1.39,7.81c0.23,1.9-1.75,1.21-2.92,1.29c-3.17-1.12-3.54,3.46-6.13,2.79c-4.2-0.9-0.7,3.77-3.44,4.4
		c-0.24,1.51-0.79,2.62-1.86,3.79c-5.35,0.43-7.17-9.72-13.11-10.99c-4.84-8.4,5.37-19.16,0.36-27.65c0.12-2.28-1.78-4.37-3.13-6.46
		c-5.87-0.14-11.55-7.74-6.86-12.42c2.64-6,1.02-14.72,1.44-22.15c-0.29-4.26-6.04-1.19-5.77-4.22c-0.5-1.73,2.51-2.08,2.99-0.33
		c0.09,0.56,1.15,0.66,1.27-0.21c0.88-2.44,4.94,0.8,5.88-1.77c9.78-4.4-8.27,26.14-1.86,28.07c6.31,1.61,8.5-4.16,10.92-8.56
		c0.9-1.99,2.58-3.36,3.89-5.62c2.18-0.09,0.44-2.05,1.56-2.94c2.6-0.87,2.06-3.58,3.83-4.79c-0.61-2.86,2.62-2.8,2.97-4.81
		c-0.46-1.74,0.85-1.39,1.37-2.7c0.15-4.13-5.77-4.72-7.13-1.04c-0.39,0.77-1.66,0.59-1.42-0.25c0.11-2.53,3.01-5.79,6.1-6.48
		c4.75-1.4,2.07-9.26-2.84-6.91c-3.84,2.97-7.06,5.46-9.44,9.76c-3.31-1.03-1.43-5.76-4.82-7.25c-1.85-4.35,4.1-4.88,6.85-6.37
		c0.34-1.45,2.85-1.76,2.75-3.19c0.1-0.75-0.39-1.85,1.08-1.75c1.46-3.56,7.36-6.74,5.77-11.2c-9-4.28-13.69,20.16-18.97,9.87
		c-1.86,0.1,0.43,2.69-1.63,2.85c-1.61,1.03-0.16,2.81,0.88,3.57c-0.42,1.06-2.03,0.83-1.42,2.34c0.47,1.68-3.38,1.84-2.84,0.06
		c0.72-3.45-3.22-5.26-5.28-7.57c-5.87-5.53,6.84,2.78,15.16-14.73c2.79-3.99,2.89-6.5,7.9-3.69c4.36-1.19,7.27-5.72,10.79-8.22
		c3.15-0.01,4.55-3.12,6.48-4.69c2.28,2.09-0.52,5.06-2.2,6.48c0.65,1.75-1.04,1.75-1.47,3c-0.08,0.89,0.28,1.84-1.13,2.27
		c-2.02,10.85,7.85,3.39,9.15-1.75c1.51-4.44,10.26-12.76,0.57-13.17c-1.49-2.33-2.05-0.39-3.64,0.35c-1.29-1.5-4.38-3.02-3.35-5.49
		c3.17-1.31-0.47-5.13,2.63-6.44c0.98-5.01,18.84-16.72,4.91-16.54c-4.53,4.35-7.34,9.71-12.02,13.49c0.84,3.05-2.64,4.42-1.33,7.11
		c0.39,2.85-2.97,2.98-2.89,5.22c-2.72,3.23-4.69,7.38-7.09,10.15c-1.3,3.48-1.91-2.13-1.48-3.54c-0.41-1.41,2.34-1.07,1.4-2.67
		c0.76-1.46-1.19-0.84-1.37-1.77c-0.09-1.04,0.33-2.29-1.34-2.61c-0.1-1.17,3.42-4.55,0.3-5.53c-0.68-3.18-1.44-2.02-3.97-4.1
		c-2.2-2.29,0.69-3.19,2.03-4.9c2.94-2.96,7.13,3.44,9.87-1.24c3.72-3.71,6.6-7.23,10.38-10.7c1.91-0.97,1.67-4.37,0.32-4.74
		c-1.91-18.51-10.73,4.13-13.4-3.01c-0.82-7.39,5.02-13.07,9.42-18.39c2.33-2.34,11.76,2.65,14.94-1.03
		c1.74-0.99,6.27-0.07,5.69-3.88c0.67-2.61,6.54-9.09-0.1-10.69c-5.94-2.47,1.81-8.91,6.29-7.21c3.28,3.81,11.74-0.82,15.24,2.36
		c8.35,1.32,12.48-0.5,1.13,4.8c-6.39,7.98,8.4,5.88,10.83,2.83c2.31,0.06,4.08-1.75,6.2-2.91c1.07-0.73-0.5-3.31,1.76-2.88
		c6.83-5.12-8.21-7.63-9.88-9.32c2.39-1.91,10.88-0.66,9.88-6.21c0.1-8.01-16.74,3.98-21.41-0.88c2.87-1.63,6.38-0.8,9.22-4.98
		c4.87-2.97,12.54-0.12,15.12-5.67c0-2.86,0.04-2.86,2.85-2.86c13.57,1.73,26.7-3.36,29.94-16.12c-0.99-3.23,2.9-1.47,2.83-3.71
		c0.07-0.72-0.34-1.66,1-1.71c3.54-8.32,13.02,2.4,18.72,3.08c4.62,2.52,15.48-4.26,17.74,5.23c14.75,8.9-1.31-13.41,10.34-11.04
		c3.35,0.68,5.2-4.89,2.25-6.29c-0.11-1.01,0.41-2.34-1.32-2.51c-0.43-0.8,0.56-2.67-1.2-2.62c-1.77-5.25-5.92-8.64-7.58-13.96
		c-13.5-4.46,0.9,17.16-9.16,16.83c-0.82-0.24-1.19,1.28-0.28,1.39c4.07,7.2-7.45-0.42-8.96-3.25c-6.48-3.81-4.28,3.91-3,6.73
		c-6.45,2.35-18.07-21.22-28.31-19.16c-6.5,0.16-1.14,17.81,1.05,20.23c1.03,8.11-0.8,4.45-6.1,4.05c-3.72-0.6-2.72,3.38-4.69,4.35
		c-4.9,0.76-6.99-5.41-11.95-4.33c-6.06,5.28,6.09,8.49,9.54,11.42c-0.44,4.4-9.54-1.95-13.74-0.02
		c-2.39-1.32-12.67-4.17-11.46,1.87c-1.41,2.97,7.59,4.61,7,6.35c-7.49,6.62-13.47-6.7-22.59-3.97c-1.79,0.16-4.86,3.33-1.83,4.49
		c0.92,0.68-0.55,2.63,1.36,2.79c0.74,2.64,1.07,5.54,3.25,8.02c7.4,3.94-29.55,0.05-31.64,5.96c-3.5-0.47-11.08,7.06-5.03,8.79
		c1.9,2.79,6.02,0.22,8.12,2.21c-5.04,3.57-16.18,2.16-21.35,1.1c-11.12,4.77,8.93,13.56,1.5,16.67c-1.52-0.66-1.45,1.44-2.49,1.41
		c-1.62-0.34-1.47,0.43-2.45,1.4c-3.75,0.47-6.05,4.22-9.04,5.74c-1.57-0.59-1.7,1.09-2.7,1.4c-0.65-0.72-1.57-3.66,0.54-4.54
		c1.22-0.65-0.98-3.91,1.17-4.03c0.69,0,0.55-0.6,0.56-1.03c-0.44-2.73,0.35-4.11,1.44-5.92c0.31-1.12-0.87-2.72,1.23-3.3
		c0.79-1.44-1.71-4.52-2.4-5.68c-1.73-4.38,1.1-2.76,2.56-5.23c1.6-4.89-4.9-4.28-2.34-8.76c2.21-1.72,3.53-4.57,6.44-4.54
		c2.08-1.96,3.59-5.61,6.79-5.56c3.77-4.26,8.11-8.26,10.56-13.57c11.08-9.04-5.13-19.43,4.29-24.9c1.56-0.4,2.21-1.89,3.96-1.36
		c1.86,0.51,1.58-2,3.54-1.5c2,0.66,1.94-1.03,3.51-1.48c1.63,0.57,1.41-1.04,2.62-1.37c22.14-5.5,2.46-9.82,8.93-20
		c3.38-0.16,9.83,1.13,8.86-4.11c-13.51-14.71,7.2-11.43,15.71-13.9c4.06-0.4,7.37-1.74,11.55-1.97c0.62,0,1.26,0.12,1.28-0.88
		c0.8-1.87,3.75,0.89,4.61-1.79c3.55-0.02,12.71-1.67,8.86-7.35c-6.85-23.37,35.41,3.52,29.32-20.23
		c3.16-3.02,11.68-0.69,15.19,0.25c3.68,0.8,9.5-1.5,12.03,0.95c0.25,1.02,2.57,0.64,2.75-0.14c5.06-1.32,10.66-2.15,16.42-2.24
		c2.23,0.24,4.15-1.83,6.18-2.99c0.72-1.29-0.36-2.87,2.02-2.75c7.01-4.14,19.86,4.7,19.77-4.17c-0.19-1.37-3.46-3.88-0.28-4.35
		c10.36,0.1,16.42,10.38,26.37,11.4c1.41,0.33,0.59-1.78,2.08-1.48c1.23-0.22,2.81,0.75,3.61-1.21c0.37-0.67,4.04,0.68,3.88-1.02
		c3.96-2.02,8.34-3.37,11.48-5.92c21.66-8.05-9.89,15.42,31.42,2.98c3.06-0.57,14.46-6.4,17.07-2.23c0.09,3.21-0.96,8.33,2.59,8.86
		c8.89-5.74,4.69,9.49,10.31,11.48c2.75-0.24,4.73,2.26,8.27,1.52c0.36,2.1,2,1.08,3.11,1.29c1.56-0.44,1.18,1.88,2.71,1.36
		c8.93,3.78,32.31-4.68,34.47,3.81c5.04,4.74-5,12.48,2.92,14.85c3.29,2.78,8.42,0.25,11.39,3.99c5.82-0.33,0.34,8.38,3.69,10.28
		c1.62-0.7,1.77,1.46,3.14,1.35c1.81-0.63,1.43,2.33,3.33,1.45c2.55-0.56,3.08,2.02,4.76,2.89c0.91,0.08,2.02-0.43,2.3,1.23
		c0.47,1.01,4.21-1.02,4.1,1.21c1.11,1.62,5.39-1.18,5.77,1.44c1.52,1.56,6.53-1.37,7.13,1.42c15.63,0.3-1.86,12.25,10.66,16.05
		c0.94,0.07,2.12-0.4,2.25,1.26c0.55,0.73,2.72-0.5,2.71,1.19c1.55,1.04,4.75,1.14,5.72,2.84c0.93,1.67,3.85-1.06,4.56,1.74
		c0.13,0.48,1.49,0.1,2.27,0.18c4.07,0.61,4.88,3.11,4.56,7.46c-0.06,5.55-8,4.36-7.21,10.12c2.21,4.99,7.36,10,11.96,12.57
		c15.91,13.05-7.89,8.1,5.5,22.54c32.36,27.13-2.33,15.71,9.66,30.41c0.58,10.62,28.95,30.68,5.7,33.56
		c-2.77,0.24-6.69,4.13-2.97,6.36c0.48,0.69-0.41,2.69,1.17,2.7c1.56,0.98-0.84,3.64,1.69,4.54c0.17,2.03,0.15,3.4,1.66,4.94
		c1.17,9.65-6.28,18.15-0.33,26.24c1.28,1.26-1,5.35,1.43,5.77c1.09,0.62-0.67,2.59,1.4,2.86c1.07,1.66-0.69,3.58,1.73,4.88
		C750.1,463.72,756.22,468.23,754.94,477.2z M282.37,477.56c0.02,3.66-3.09-0.64-0.82-1.37
		C282.79,476.12,282.08,477.15,282.37,477.56z M305.34,349.1c5.57,2.27,7.16,5.05-0.33,4.27C297.2,354.29,300.04,350.7,305.34,349.1
		z"/>
	<path d="M463.19,607.47c-1.36,12.43-4.97,24.04-5.24,37.5c1.65,1.9,1.12,4.1,1.63,6.62c2.15,0.07,0.58,2.23,1.51,2.99
		c2.36-0.04,0.03,2.85,1.91,2.93c1.63,2.71,3.48,6.4,6.25,9.05c2.22,1.29,1.48,4.82,4.27,5.52c3.15,6.08,10.72,7.76,15.73,11.65
		c-0.8,0.95-3.01,6.15-0.05,6.64c1.74-0.66,1.32,1.84,3,1.42c2.68-0.74,5.06,3.71,7.64,0.05c-0.44-22.57,1.89-53.7,0.91-81.38
		c-2.35-3.24-0.97-8.6-1.73-12.81c-2.56-0.61-0.6-4.22-1.17-6.19c-1.08-1.59-1.81-3.07-1.37-5.61c-4.63-6.68-6.01-15.43-13.64-21.14
		c-7.54-2.05,6.94-10.57,6.43-13.85c0.01-1.79,1.83-3.02,1.85-4.68c2.81-0.29-0.44-4.99,1.8-5.82c1.73-2,0.21-8.69-2.59-8.57
		c-8.34-1.34-0.68,14.53-15.13,24.88c-6.31,6.49-14.2-1.36-19.9-1.97c-2,0.4-1.54-2.04-3.48-1.44c-1.33-0.08-1.3-1.93-2.97-1.38
		c-1.53-2.32-4.13-0.44-5.25-2.46c-14.16-5.64-27.78-15.22-41.19-20.58c-1.13-2.45-4.02-3.15-5.85-4.15
		c-1.82,0.55-1.32-2.09-3.14-1.47c-4.52-3.01-10.16-7.25-15.45-8.92c-4.87-5.78-11.19,0.52-16.73,1.89
		c-0.79,0.93-0.73,2.08-2.25,1.4c-1.33-0.32-0.74,1.78-1.89,1.39c-3.73,0.25-4.88,4.58-9,4.5c-0.75,1.14-1.69,3.04-3.57,2.73
		c-4.34,0.71-1.73,9.78,1.96,6.47c2.67-2,6.11-2.84,8.6-4.25c-0.03-1.5,2.19-0.5,2.62-1.03c0.24-1.51,1.38-1.16,2.33-1.2
		c0.36-0.02,0.74-0.08,0.72-0.52c-0.01-2.14,2.9,0.23,3-1.92c3.65-1.44,8.88-5.39,12.8-2.57c12.03,6.8,25.31,15.56,37.57,20.62
		c0.94,1.75,15.89,6.66,11.39,7.12c-14.31-2.2-30.8-0.48-45.09-2.78c-1.85,1.63-4.56,0.85-3.88,4.23c-1.92,4.03,7.81,2.47,2.81,4.31
		c-7.45-2.13-33.26,3.86-19.21,11.37c4.68-3.69,11.73-2.65,18.44-2.79c6.76,1.2,16.26-3.84,12.42,5.59
		c2.19,2.67,3.07,8.68,8.05,8.89c0.63,2.94,4.18-0.45,4.66,2.32c1.06,1.45,1.51-1.82,2.95-1.11c5.47-0.08,10.58-5.81,9.78-11.7
		c2.74-3.17,22.43,0.2,24.52,2.96c9.99,8.03-8.5,13.35-16.02,11.62c-15.68-0.97-34.57,2.64-47.49-2.86
		c-19.84-20.02-26.45-8.67-3.86,5.73c16.24,8.66,38.7,6.37,58.5,6.71C444.14,583.45,469.17,587.06,463.19,607.47z M409.12,557.49
		c-1.32,0.08-7.85,0.32-4.52-1.36C410.12,555.33,420.61,557.38,409.12,557.49z M435.24,560.17c-0.75-3.2-6.17,0.56-7.27-1.97
		c3.32-2.57,8.47,0.73,11.58,0.76c6.28,1.39,12.6,4.39,17,9.53c3.38,4.31,6.77,0.98,7.8-2.38c8.07,2.84,10.75-0.88,17.47,7.22
		c13.88,26.22,8.64,63.53,8.28,98.44c-2.68,0.89-10.43-7.42-10.89-11.01c-6.44-5.86-8.75-12.73-8.41-21.85
		c-0.3-14.05,5.9-25.26,4.01-39.78c-2.99-0.41,0.53-4.15-2.39-4.54c-0.89-0.66,0.71-2.9-1.32-2.91c-1-0.62,0.73-2.88-1.41-2.78
		c-0.99-5.73-7.4-6.39-10.56-9.63c-10.36-1.19-4.88-4.06-7.69-10.25C446.67,563.75,442.26,560.44,435.24,560.17z"/>
	<path d="M652.25,523.05c-1.45-2.92-4.68-3.41-7.1-4.28c-0.42-1.96-2.49-0.28-6.03-2.63c-10.72-8.06-16.71,1.86-26.5,5.77
		c-10.09,8.21-21.26,14.71-31.96,20.7c-2.67,2.57-6.68,4.27-9.77,5.16c-2.56,3.88-7.16,4.04-10.78,5.5
		c-6.14,4.35-13.25,6.42-22.37,5.7c-1.65-0.33-1.91-1.82-4.02-1.7c-1.2-3.02-5.02-2.31-5.98-5.1c-4.17-2.24-9.39-17.11-14.09-7.17
		c-0.19,4.49,6.59,6.82,7.89,11.16c5.32,3.49-0.76,5.33-0.81,9.33c-2.68,2.6-2.57,7.78-0.02,11.47c4.74,0.98,3.88,2.14,4.79,6.24
		c4.75,3.77,6.31,2.78,10.82,1.49c1.77,0.61,1.29-1.93,2.83-1.46c2.3,0.38,2.3-2.72,4.32-2.82c1.46,0.46,1.21-0.9,2.15-1.44
		c2.82-1.54,2.31-5.21,3.66-7.34c-0.88-3.19,2.63-3.52,4.31-4.82c9.61-8.03-1.34,7.71,5.76,7.9c4.37,0.41,5.07-3.71,6.94-6.34
		c5.81-3.13,13.16-2.18,20.32-2.3c2.76,0.09,0.04,4.72,1.65,5.73c2.68,0.61,2.98,4.63,6.21,4.39c1.4,2.66,4.03,0.32,5.59,2.77
		c1.86,0.18,2.86,0.16,4.34-1.33c2.43,0.48,3.02-0.62,4.48-1.55c5.48-3.7,3.17-10.74,6.48-11.4c7.16,1.08,16.95-2.02,22.72,1.24
		c3.25-0.3,6.76,3.92,9.69-0.43c-0.26-10.43-13.6-7.88-19.95-10.1c17.42-12.53-21.18-5.71-27.88-6.45
		c-10.64,0.11-22.55,1.12-6.12-5.6c7.26-5.87,15.69-9.1,22.96-15.56c9.51-6.47,15.61-8.01,25.76-3.04c1.76,1.13,1.17,1.53,3.71,1.73
		c0.15,2,2.23,0.5,2.93,1.45c0.03,1.55,1.15,1.01,1.95,1.1c1.44,0.11,0.89,2.12,2.8,1.42c1.46,0.27,1.85,2.56,3.61,1.2
		C662.59,527.63,655.99,523.3,652.25,523.05z M536.45,571.83c-10.76,1.18-1.69-6.01,4.3-4.31
		C545.11,570.08,540.03,572.9,536.45,571.83z"/>
	<path d="M479.43,754.53c-5.13-0.77-22.74,6.28-10.25,10.3c0.41,2.72,3.49,0.08,4.36,1.73c0.8,2.11,4.26,0.06,5.7,1.11
		c1.61,2.75,6.43,0.08,8.65,2.62c20.75,1.02,39.66,1.9,58.31-4.36C569.16,745.52,488.13,751.29,479.43,754.53z M507.97,764.58
		c-1.53,0.05-9.97,0.44-5.98-1.47C508.37,762.26,521.91,764.35,507.97,764.58z"/>
	<path d="M569.55,732.94c-1.14-3.13-5.19,1-6.18-2.42c-5.46,0.14-8.8-2.32-14.38-1.7c-25.84-6.5-59.71-4.95-86.63-1.06
		c-0.92,2.67-5.36,0.02-7.19,1.34c-1.02,2.63-5.67,0.13-9.03,2.69c-2.54-0.59-3.71,0.89-5.54,1.4c-1.03,0.19-2.61-0.81-2.88,1.24
		c-4.37-1.13-7.72,4.97-4.39,7.32c22.81-4.07,44.16-9.95,70.2-8.58c22.65-0.8,42.66,2.93,63.12,5.72
		c2.57,1.13,20.07,9.12,18.32,0.52C585.44,735.14,572.79,733.63,569.55,732.94z"/>
	<path d="M625.74,580.4c-14.71,3.52-35.95,3.72-52.16,2.03c-10.95-8.05-17.24,0.14-5.94,5.27c12.65,6.87,33.57,4,48.65,2.69
		c8.42,1.34,29.06-11.59,26.96-21.28C635.8,568.4,632.6,580.15,625.74,580.4z"/>
	<path d="M646.76,460.36c2.2,0.07-0.03,2.75,1.82,2.9c1.52,2.57,5.41,1.73,6.41-1.02c-1.03-8.08-4.03-14.52-2.91-23.95
		c1.96-10.72-3.59-26.09-9.93-9.57c-0.53,11.55,0.95,21.67,4.29,30.78C646.45,459.82,646.34,460.34,646.76,460.36z"/>
	<path d="M513.62,534.04c-1.15,3.05,5.7,2.86,5.68,0.92c-0.67-1.77,2.03-1.47,1.46-3.21c-0.39-2.85,2.09-3,1.44-5.38
		c1.11-7.31-8.98-0.64-8.63,3.4C514.77,532.44,510.21,531.46,513.62,534.04z"/>
	<path d="M514.88,693.19c4.7,1.42,12.29-9.01,3.52-8.57C513.3,682.99,505.39,694.01,514.88,693.19z"/>
	<path d="M404.99,323.39c-7.92,2.94-43.39-9.84-39.28,2.86c6.01,3.16,10.03,9.15,16.3,11.63c2.13,5.42,15.51,5.62,8.35-1.44
		c-15.44-10.71,2.29-4.09,9.64-4.49C408.1,333.64,414.33,326.15,404.99,323.39z"/>
	<path d="M430.86,310.07c-0.26-2.2-3.47-0.13-4.13-1.28c-0.52-2.12-3.18-0.61-4.21-1.25c-0.57-2.15-2.27-1.02-3.45-1.26
		c-1.88-0.83-3.92-2.98-6.63-2.94c-0.32-2.68-3.02-0.45-4.36-1.7c-1.42-2.29-4.08-3.22-6.01-3.94c-1.67-0.46-2.01-1.95-3.89-1.43
		c-14.47-2.67,25.53,40.85,24.01,25.01c0.47-2.35-1.98-3.88-4.08-3.83c-5.83-5.59-4.85-6.77,2.55-3.81c0.18,2.96,4.11-0.6,4.62,2.45
		c3.19-0.4,5.52,1.46,7.99,1.52C440.26,317.52,435.62,309.38,430.86,310.07z"/>
	<path d="M649.5,320.77c-3.44,2.8-8.19,2.65-13.22,2.63c-2.82,2.05-6.46,1.4-10.5,1.42c-5.39-0.83-16.6,0.67-11.08,7.17
		c4.08,2.84,11.35,0.05,15.91,2.09c-2.63,2.16-9.36,3.35-8.52,8.41c2.32,3.99,3.7,1.22,6.2,0.84
		C631.43,339.37,665.1,324.88,649.5,320.77z"/>
	<path d="M702.1,498.68c-2.38-2.29-0.21-4.6-2.68-5.61c-0.45-3.25-3.11-5.31-3.29-8.19c-1.7-0.11-1.13-1.34-1.22-2.24
		c-0.26-1.13-2-0.8-1.35-2.38c-4.18-4.46-10.39,1.71-4.46,6.36c1.14,0.26,1.85,2.04,1.7,3.58c2.79,1.13,0.05,4.06,2.72,5.2
		c-2.04,3.15-7.52-3.99-8.52,2c-1.01,2.85,2.29,3.75,3.72,6c2.4,1.55,1.73,4.74,4.77,5.94c4.35,9.89,9.86,8.92,9.99-1.83
		C704.13,503.79,701.36,502.47,702.1,498.68z"/>
	<path d="M612.1,306.73c-2.23-1.92-2.8,1.43-4.58,0.96c-5.84,0.63-10.1,4.74-15.34,6c-0.13,2.5-3.12,0.21-4.17,1.39
		c-1.39,2.33-4.11,3.31-6.15,4.03c-1.61,0.53-1.43,1.75-3.75,1.68c-4.94,1.33-6.81,9.31-0.32,7.95c2.17-1.87,5.1-3.27,8.43-4.05
		c0.14-2.23,2.33-0.6,3.03-1.69c-0.1-1.95,2.13-0.41,2.73-1.3c0.48-2.85,4.03,0.57,4.52-2.19c3.42-1.3-1.05,6.98,4.11,5.31
		c5.56-0.65,7.58-8.21,11.91-11.38C614.97,311.97,613.51,308.32,612.1,306.73z"/>
	<path d="M693.59,381.95c-5.18,2.55,3.49,10.62,6.72,12.94c4.28,10.53,13.23,6.81,9.35,2.73c-0.48-2.13-1.14-2.92-3.18-4.72
		c-1.94-1.87-1.98-4.19-4.32-5.93c-3.61-2.06,1.44-3.56,3.12-1.02c0.31,1.46,2.39,1.73,3.9,2.09c1.47,2.25,4.49,3.9,6.83,3.84
		c7.45-0.17-10.93-16.91-14.53-15.67C696.75,374.91,697.85,381.16,693.59,381.95z"/>
	<path d="M300.72,499.86c3.28-3.68,7.44-7.56,8.67-12.01c0.49-3.98-1.62-2.95-4.53-3.13c-1.85,0.25-0.85,3.73-3.27,4.12
		c-2.48,3.7-6.24,6.33-7.94,10.61c-2.83,4.17-1.95-2.91-4.62-1.96c-6.66,0.39-11.04,8.77-15.28,12.56
		c1.56,9.86,13.97-3.85,17.32-7.96C294.87,504.97,298.19,506.67,300.72,499.86z"/>
	<path d="M693.69,426.19c-1.19-0.21-2.81,1.47-3.04,2.49c-0.64,3.44,3.27,5.85,5.56,7.71c1.84,2.18,2.66,6.87,6.34,6.94
		c6.39-0.77,2.51-6.49-0.32-9.07c0.27-7.9,5.67-3.84-1.42-14.25c-5.42-11.9-15.81-5.58-5.13,3.34
		C697.63,425.08,695.73,426.77,693.69,426.19z"/>
	<path d="M676.88,334.73c-2.59-1.88,8.43-2.48,9.39-3.13c1.11-2.99,5.47,1.24,4.36-3.95c1.19-2.35-4.54-5.48-5.6-3.74
		c-2.98,2.75-12.63-1.28-11.53,5.63c-2.78,3.74-12.16-3.47-11.42,3.95c-0.69,4,2.28,1.92,4.21,3.13c0.2,1.63,1.35,0.98,2.18,1.11
		c2.17-0.07,3.36,2.01,6,2.74C677.09,341.1,679.46,335.61,676.88,334.73z"/>
	<path d="M623.67,306.25c4.56,0.2,6.29-4.88,11.07-4.5c0.47-2.8,3.39-0.16,4.38-1.69c1.33-2.17,3.76,0.23,5.13-2.36
		c4.23,0.81,2.36-8.09-1.25-7.15c-1.27,0.72-1.36,1.85-3.05,1.35c-2.27-0.41-2.39,2.19-4.6,1.5c-2.1,0.03-2.22,1.85-4.54,1.73
		c-0.17,1.97-2.25,0.5-2.93,1.45c0.06,2.08-2.24,0.4-2.81,1.41c-0.07,2.11-1.96,0.48-2.86,1.39
		C620.47,301.39,619.07,307.14,623.67,306.25z"/>
	<path d="M471.79,259.13c-4.7,4.81,5.59,10.31,6.2,15.34c3.31,1.72,2.62,10.22,7.75,10.36c7.32-1.06,0.57-6.6,0.5-9.89
		C481.98,270.53,479.52,259.52,471.79,259.13z"/>
	<path d="M308.61,513.31c-3.89,0.33-1.64-4.02-0.59-5.21c-1.89-15.51-15.76,9.21-7.69,8c6.81,3.01-6.87,12.1,7.6,10.26
		c-0.77-2.76,1.63-4.61,1.46-6.92c-0.86-1.65,2.39-1.92,1.13-3.15C308.23,516.18,310.47,513.34,308.61,513.31z"/>
	<path d="M566.22,301.97c-4.67-0.3-6.92,6.72-10.92,8.88c-5,2.4-14.97,12.96-3.26,12.26C554.22,318.36,577.49,302.73,566.22,301.97z
		"/>
	<path d="M700.68,474.05c-3.04,2.42-1.18,6.8,2.67,6.56c3.87,4.08,7.18,9.6,12.6,11.25C726.87,489.92,703.9,470.28,700.68,474.05z"
		/>
	<path d="M700.68,363.11c2.51-2.29-20.99-17.71-21.49-13.13c-1.22,7.91,6.74,7.8,10.39,11.88
		C693.24,361.9,700.13,371.44,700.68,363.11z"/>
	<path d="M580.65,317.15c1.91-2.25,5.24,0.48,4.32-4.34c1.35-8.09-7.42-1.08-10.27-0.79c-1.46-0.13-1.13,2.01-2.87,1.37
		c-1.5,0.34-1.34,2.01-3.21,1.43c-1.2,1.66-4.66,1.41-5.01,4.27c-0.77,10.06,8.29,0.73,11.58,0.01
		C577.68,316.99,578.3,318.24,580.65,317.15z"/>
	<path d="M583.7,303.46c3.1-1.84,5.98-5.45,9.78-6.15c-0.08-1.97,2.13-0.4,2.73-1.32c1.07-2.21,4.02-0.14,3.09-3.91
		C600.39,281.24,566.65,303.81,583.7,303.46z"/>
	<path d="M654.57,346.3c-4.02,0.66-6.78,8.05,0.42,7.07c4.65-0.71,17.48-2.11,15.65-9.05C665.77,340.34,659.98,347.37,654.57,346.3z
		"/>
	<path d="M585.04,286.69c2.56-1.81,10.24-8.91,2.79-8.93c-5,0.75-11.11,7.97-12.86,12.38C573.89,297.63,585.63,291.48,585.04,286.69
		z"/>
	<path d="M702.12,466.54c4.18,6.45,9.32-0.22,5.12-4.62c-2.21-2.68-2.42-6.16-5.05-9.29c-1.91-1.31-6.8-1.71-5.85,2
		C696.76,459.32,700.47,462.57,702.12,466.54z"/>
	<path d="M728.16,458.81c2.46,1.96,3.39,11.38,7.84,10.21c6.84,1.2,0.95-8.22-0.99-10.36C735.54,452.99,724.73,453.31,728.16,458.81
		z"/>
	<path d="M712.02,453.1c0,3.71,3.26,6.5,5.37,8.97C732.88,474.83,715.29,440.2,712.02,453.1z"/>
	<path d="M732.44,431.95c3.5-1.54-2.83-9.39-5.77-8.56C718.13,424.19,727.52,434.12,732.44,431.95z"/>
</g>
</svg>
